<?xml version="1.0" encoding="UTF-8" standalone="no"?>
<!-- Created with Inkscape (http://www.inkscape.org/) -->

<svg
   xmlns:dc="http://purl.org/dc/elements/1.1/"
   xmlns:cc="http://creativecommons.org/ns#"
   xmlns:rdf="http://www.w3.org/1999/02/22-rdf-syntax-ns#"
   xmlns:svg="http://www.w3.org/2000/svg"
   xmlns="http://www.w3.org/2000/svg"
   xmlns:sodipodi="http://sodipodi.sourceforge.net/DTD/sodipodi-0.dtd"
   xmlns:inkscape="http://www.inkscape.org/namespaces/inkscape"
   width="210mm"
   height="297mm"
   id="svg2"
   version="1.1"
   inkscape:version="0.48.3.1 r9886"
   sodipodi:docname="figureOpticalConstraint.svg">
  <sodipodi:namedview
     id="base"
     pagecolor="#ffffff"
     bordercolor="#666666"
     borderopacity="1.0"
     inkscape:pageopacity="0.0"
     inkscape:pageshadow="2"
     inkscape:zoom="0.24516274"
     inkscape:cx="372.04724"
     inkscape:cy="526.18109"
     inkscape:document-units="px"
     inkscape:current-layer="layer1"
     showgrid="true"
     inkscape:window-width="1270"
     inkscape:window-height="470"
     inkscape:window-x="0"
     inkscape:window-y="0"
     inkscape:window-maximized="0">
    <inkscape:grid
       type="xygrid"
       id="grid2987"
       empspacing="5"
       visible="true"
       enabled="true"
       snapvisiblegridlinesonly="true" />
  </sodipodi:namedview>
  <defs
     id="defs4">
    <marker
       inkscape:stockid="Arrow1Lend"
       orient="auto"
       refY="0.0"
       refX="0.0"
       id="Arrow1Lend"
       style="overflow:visible;">
      <path
         id="path3766"
         d="M 0.0,0.0 L 5.0,-5.0 L -12.5,0.0 L 5.0,5.0 L 0.0,0.0 z "
         style="fill-rule:evenodd;stroke:#000000;stroke-width:1.0pt;"
         transform="scale(0.8) rotate(180) translate(12.5,0)" />
    </marker>
    <marker
       inkscape:stockid="Arrow1Lstart"
       orient="auto"
       refY="0.0"
       refX="0.0"
       id="Arrow1Lstart"
       style="overflow:visible">
      <path
         id="path3763"
         d="M 0.0,0.0 L 5.0,-5.0 L -12.5,0.0 L 5.0,5.0 L 0.0,0.0 z "
         style="fill-rule:evenodd;stroke:#000000;stroke-width:1.0pt"
         transform="scale(0.8) translate(12.5,0)" />
    </marker>
  </defs>
  <metadata
     id="metadata7">
    <rdf:RDF>
      <cc:Work
         rdf:about="">
        <dc:format>image/svg+xml</dc:format>
        <dc:type
           rdf:resource="http://purl.org/dc/dcmitype/StillImage" />
        <dc:title></dc:title>
      </cc:Work>
    </rdf:RDF>
  </metadata>
  <g
     inkscape:label="Calque 1"
     inkscape:groupmode="layer"
     id="layer1">
    <path
       style="fill:none;stroke:#000000;stroke-width:1px;stroke-linecap:butt;stroke-linejoin:miter;stroke-opacity:1;marker-start:none;marker-end:url(#Arrow1Lend)"
       d="M 160,352.36218 160,72.362183"
       id="path2989"
       inkscape:connector-curvature="0"
       inkscape:export-filename="/home/ghostbot/Documents/BA3/PA/Rapport/figureOpticalConstraint.png"
       inkscape:export-xdpi="112"
       inkscape:export-ydpi="112" />
    <path
       style="fill:none;stroke:#000000;stroke-width:1px;stroke-linecap:butt;stroke-linejoin:miter;stroke-opacity:1;marker-end:url(#Arrow1Lend)"
       d="m 140,332.36218 500,0"
       id="path4755"
       inkscape:connector-curvature="0"
       inkscape:export-filename="/home/ghostbot/Documents/BA3/PA/Rapport/figureOpticalConstraint.png"
       inkscape:export-xdpi="112"
       inkscape:export-ydpi="112" />
    <path
       style="fill:none;stroke:#000000;stroke-width:1px;stroke-linecap:butt;stroke-linejoin:miter;stroke-opacity:1"
       d="M 120,92.362183 600,347.36218"
       id="path4941"
       inkscape:connector-curvature="0"
       sodipodi:nodetypes="cc"
       inkscape:export-filename="/home/ghostbot/Documents/BA3/PA/Rapport/figureOpticalConstraint.png"
       inkscape:export-xdpi="112"
       inkscape:export-ydpi="112" />
    <path
       style="fill:none;stroke:#000000;stroke-width:1px;stroke-linecap:butt;stroke-linejoin:miter;stroke-opacity:1"
       d="m 250,162.36218 -90,170 205,-110"
       id="path4943"
       inkscape:connector-curvature="0"
       sodipodi:nodetypes="ccc"
       inkscape:export-filename="/home/ghostbot/Documents/BA3/PA/Rapport/figureOpticalConstraint.png"
       inkscape:export-xdpi="112"
       inkscape:export-ydpi="112" />
    <path
       style="opacity:1;fill:none;fill-opacity:1;stroke:#000000;stroke-width:1;stroke-miterlimit:4;stroke-opacity:1;stroke-dashoffset:0"
       d="m 250,162.36218 10,5 -5,10 -10,-5 z"
       id="rect4945"
       inkscape:connector-curvature="0"
       sodipodi:nodetypes="ccccc"
       inkscape:export-filename="/home/ghostbot/Documents/BA3/PA/Rapport/figureOpticalConstraint.png"
       inkscape:export-xdpi="112"
       inkscape:export-ydpi="112" />
    <g
       id="g3015"
       transform="translate(77.305916,-134.18704)"
       inkscape:export-filename="/home/ghostbot/Documents/BA3/PA/Rapport/figureOpticalConstraint.png"
       inkscape:export-xdpi="112"
       inkscape:export-ydpi="112">
      <g
         word-spacing="normal"
         letter-spacing="normal"
         font-size-adjust="none"
         font-stretch="normal"
         font-weight="normal"
         font-variant="normal"
         font-style="normal"
         stroke-miterlimit="10.433"
         xml:space="preserve"
         transform="matrix(1.0629921,0,0,-1.0629921,-186.02362,789.27165)"
         id="content"
         style="font-style:normal;font-variant:normal;font-weight:normal;font-stretch:normal;letter-spacing:normal;word-spacing:normal;text-anchor:start;fill:none;stroke:#000000;stroke-linecap:butt;stroke-linejoin:miter;stroke-miterlimit:10.43299961;stroke-opacity:1;stroke-dasharray:none;stroke-dashoffset:0"><path
           id="path3018"
           d="m 480.35,435.84 -0.07,-0.06 -0.07,-0.07 -0.07,-0.07 -0.09,-0.07 -0.08,-0.08 -0.09,-0.08 -0.09,-0.09 -0.09,-0.08 -0.1,-0.09 -0.1,-0.1 -0.19,-0.19 -0.2,-0.19 -0.19,-0.21 -0.09,-0.1 -0.09,-0.1 -0.09,-0.1 -0.08,-0.11 -0.08,-0.1 -0.08,-0.1 -0.07,-0.1 -0.06,-0.1 -0.06,-0.1 -0.05,-0.1 -0.05,-0.1 -0.04,-0.09 -0.03,-0.09 -0.02,-0.1 -0.02,-0.08 0,-0.09 c 0,-0.5 0.5,-1 1,-1 0.45,0 0.7,0.36 0.95,0.66 0.59,0.75 1.74,2.14 3.94,3.23 0.34,0.21 0.84,0.46 0.84,1.05 0,0.5 -0.34,0.75 -0.7,1 -1.09,0.75 -1.64,1.64 -2.05,2.83 -0.09,0.45 -0.29,1.11 -0.98,1.11 -0.71,0 -1,-0.66 -1,-1.05 0,-0.25 0.39,-1.84 1.19,-2.89 h -16.79 c -0.84,0 -1.75,0 -1.75,-1 0,-1 0.91,-1 1.75,-1 z"
           inkscape:connector-curvature="0"
           style="fill:#000000;stroke-width:0" /><path
           id="path3020"
           d="m 478.83,424.73 0,0.12 -0.01,0.13 0,0.12 -0.01,0.11 0,0.12 -0.01,0.11 -0.02,0.11 -0.01,0.1 -0.03,0.21 -0.04,0.19 -0.04,0.18 -0.05,0.18 -0.05,0.16 -0.06,0.16 -0.06,0.15 -0.07,0.13 -0.07,0.13 -0.07,0.12 -0.08,0.12 -0.08,0.1 -0.08,0.1 -0.09,0.09 -0.09,0.08 -0.09,0.07 -0.09,0.07 -0.09,0.06 -0.09,0.05 -0.09,0.05 -0.09,0.04 -0.1,0.03 -0.09,0.03 -0.09,0.03 -0.09,0.01 -0.09,0.02 -0.08,0 -0.09,0 c -1.25,0 -2.44,-1.29 -2.44,-2.39 0,-0.64 0.25,-0.93 0.8,-1.48 1.05,-1 1.69,-2.3 1.69,-4.09 0,-2.1 -3.03,-13.5 -8.86,-13.5 -2.55,0 -3.69,1.75 -3.69,4.32 0,2.8 1.34,6.44 2.89,10.57 0.35,0.86 0.59,1.54 0.59,2.5 0,2.23 -1.59,4.07 -4.09,4.07 -4.67,0 -6.58,-7.21 -6.58,-7.67 0,-0.5 0.5,-0.5 0.61,-0.5 0.5,0 0.55,0.11 0.8,0.91 1.44,5.03 3.58,6.17 5.03,6.17 0.39,0 1.25,0 1.25,-1.59 0,-1.25 -0.5,-2.6 -0.86,-3.49 -2.19,-5.78 -2.83,-8.08 -2.83,-10.22 0,-5.37 4.38,-6.17 6.67,-6.17 8.38,0 11.21,16.49 11.21,19.08 z"
           inkscape:connector-curvature="0"
           style="fill:#000000;stroke-width:0" /></g>    </g>
    <g
       id="g3193"
       transform="translate(-163.65708,-300.62129)"
       inkscape:export-filename="/home/ghostbot/Documents/BA3/PA/Rapport/figureOpticalConstraint.png"
       inkscape:export-xdpi="112"
       inkscape:export-ydpi="112">
      <g
         word-spacing="normal"
         letter-spacing="normal"
         font-size-adjust="none"
         font-stretch="normal"
         font-weight="normal"
         font-variant="normal"
         font-style="normal"
         stroke-miterlimit="10.433"
         xml:space="preserve"
         transform="matrix(1.0629921,0,0,-1.0629921,-186.02362,789.27165)"
         id="g3195"
         style="font-style:normal;font-variant:normal;font-weight:normal;font-stretch:normal;letter-spacing:normal;word-spacing:normal;text-anchor:start;fill:none;stroke:#000000;stroke-linecap:butt;stroke-linejoin:miter;stroke-miterlimit:10.43299961;stroke-opacity:1;stroke-dasharray:none;stroke-dashoffset:0"><path
           id="path3197"
           d="M 477.74,428.32 H 474 l -3.93,-10.36 c -1.05,-2.75 -2.6,-6.78 -2.99,-9.12 h -0.04 c -0.32,1.8 -1.6,5.23 -2.1,6.58 l -4.84,12.9 h -3.88 l 8.57,-22.12 h 4.39 z"
           inkscape:connector-curvature="0"
           style="fill:#000000;stroke-width:0" /></g>    </g>
    <g
       transform="translate(359.25551,-2.7941166)"
       id="g3241"
       inkscape:export-filename="/home/ghostbot/Documents/BA3/PA/Rapport/figureOpticalConstraint.png"
       inkscape:export-xdpi="112"
       inkscape:export-ydpi="112">
      <g
         style="font-style:normal;font-variant:normal;font-weight:normal;font-stretch:normal;letter-spacing:normal;word-spacing:normal;text-anchor:start;fill:none;stroke:#000000;stroke-linecap:butt;stroke-linejoin:miter;stroke-miterlimit:10.43299961;stroke-opacity:1;stroke-dasharray:none;stroke-dashoffset:0"
         id="g3243"
         transform="matrix(1.0629921,0,0,-1.0629921,-186.02362,789.27165)"
         xml:space="preserve"
         stroke-miterlimit="10.433"
         font-style="normal"
         font-variant="normal"
         font-weight="normal"
         font-stretch="normal"
         font-size-adjust="none"
         letter-spacing="normal"
         word-spacing="normal"><path
           style="fill:#000000;stroke-width:0"
           inkscape:connector-curvature="0"
           d="m 477.19,428.32 h -3.89 v -14.45 c 0,-3.73 -2.78,-5.48 -5.97,-5.48 -3.54,0 -3.89,1.29 -3.89,3.43 v 16.5 h -3.89 v -16.68 c 0,-3.6 1.16,-5.99 5.28,-5.99 2.64,0 6.19,0.8 8.63,2.94 v -2.39 h 3.73 z"
           id="path3245" /></g>    </g>
    <g
       transform="translate(-237.18424,-188.13783)"
       id="g3371"
       inkscape:export-filename="/home/ghostbot/Documents/BA3/PA/Rapport/figureOpticalConstraint.png"
       inkscape:export-xdpi="112"
       inkscape:export-ydpi="112">
      <g
         style="font-style:normal;font-variant:normal;font-weight:normal;font-stretch:normal;letter-spacing:normal;word-spacing:normal;text-anchor:start;fill:none;stroke:#000000;stroke-linecap:butt;stroke-linejoin:miter;stroke-miterlimit:10.43299961;stroke-opacity:1;stroke-dasharray:none;stroke-dashoffset:0"
         id="g3373"
         transform="matrix(1.0629921,0,0,-1.0629921,-186.02362,789.27165)"
         xml:space="preserve"
         stroke-miterlimit="10.433"
         font-style="normal"
         font-variant="normal"
         font-weight="normal"
         font-stretch="normal"
         font-size-adjust="none"
         letter-spacing="normal"
         word-spacing="normal"><path
           style="fill:#000000;stroke-width:0"
           inkscape:connector-curvature="0"
           d="m 488.35,417.65 0.16,0 0.16,0 0.15,0.01 0.08,0 0.08,0.01 0.07,0 0.08,0.01 0.07,0.01 0.07,0.01 0.07,0.02 0.07,0.02 0.07,0.02 0.06,0.02 0.06,0.02 0.06,0.03 0.05,0.03 0.06,0.04 0.05,0.03 0.04,0.05 0.04,0.04 0.04,0.05 0.02,0.03 0.02,0.03 0.01,0.03 0.02,0.03 0.01,0.03 0.02,0.03 0.01,0.04 0.01,0.03 0.01,0.04 0,0.04 0.01,0.04 0.01,0.04 0,0.04 0.01,0.04 0,0.05 0,0.04 c 0,1 -0.91,1 -1.75,1 h -26.96 c -0.84,0 -1.73,0 -1.73,-1 0,-1 0.89,-1 1.73,-1 z"
           id="path3375" /><path
           style="fill:#000000;stroke-width:0"
           inkscape:connector-curvature="0"
           d="m 517.19,447.65 0.03,0.11 0.03,0.1 0.03,0.1 0.02,0.09 0.03,0.09 0.03,0.09 0.03,0.08 0.03,0.07 0.04,0.08 0.04,0.06 0.04,0.07 0.05,0.05 0.05,0.06 0.06,0.05 0.06,0.05 0.07,0.04 0.08,0.04 0.08,0.04 0.09,0.04 0.1,0.03 0.11,0.02 0.05,0.02 0.06,0.01 0.06,0.01 0.07,0.01 0.07,0.01 0.07,0.01 0.07,0.01 0.07,0.01 0.08,0 0.08,0.01 0.09,0.01 0.08,0 0.09,0.01 0.1,0 0.09,0.01 0.1,0 0.1,0 0.11,0 0.11,0.01 0.11,0 0.12,0 0.12,0 c 0.88,0 1.28,0 1.28,0.73 0,0.32 -0.23,0.52 -0.54,0.52 -0.74,0 -1.61,-0.11 -2.35,-0.11 -0.76,0 -1.59,-0.03 -2.36,-0.03 0,0 -2.4,0.03 -2.4,0.03 -0.77,0 -1.64,0.11 -2.41,0.11 -0.22,0 -0.73,0 -0.73,-0.77 0,-0.48 0.39,-0.48 1.15,-0.48 0.03,0 0.72,0 1.32,-0.08 0.7,-0.06 0.95,-0.09 0.95,-0.48 0,-0.21 -0.08,-0.46 -0.14,-0.74 l -4.64,-18.5 c -0.28,-1.14 -0.39,-1.5 -3,-1.5 -0.94,0 -1.28,0 -1.28,-0.76 0,-0.04 0,-0.49 0.54,-0.49 1.05,0 3.67,0.14 4.71,0.14 l 2.4,-0.03 c 0.77,0 1.64,-0.11 2.41,-0.11 0.22,0 0.73,0 0.73,0.77 0,0.48 -0.42,0.48 -1.11,0.48 -0.07,0 -0.81,0 -1.5,0.08 -0.81,0.06 -0.81,0.2 -0.81,0.52 0,0.03 0,0.25 0.14,0.76 z"
           id="path3377" /><path
           style="fill:#000000;stroke-width:0"
           inkscape:connector-curvature="0"
           d="m 528.27,431.17 h 2.94 c 0.51,0 0.54,0.03 0.67,0.12 0.12,0.11 0.2,0.42 0.2,0.58 0,0.42 -0.37,0.42 -0.8,0.42 h -2.75 l 0.54,2.07 c 0.14,0.65 0.43,1.78 0.43,1.92 0,0.42 -0.31,0.87 -0.92,0.87 -0.42,0 -1.01,-0.28 -1.22,-0.95 -0.12,-0.42 0.17,0.75 -1,-3.91 h -2.95 c -0.5,0 -0.88,0 -0.88,-0.7 0,-0.42 0.35,-0.42 0.8,-0.42 h 2.77 l -1.47,-5.85 c -0.13,-0.54 -0.33,-1.32 -0.33,-1.62 0,-1.42 1.33,-2.42 3.06,-2.42 3.02,0 4.86,3.37 4.86,3.87 0,0.35 -0.42,0.35 -0.51,0.35 -0.41,0 -0.46,-0.1 -0.58,-0.43 -0.83,-1.79 -2.38,-2.93 -3.66,-2.93 -0.79,0 -1.04,0.56 -1.04,1.31 0,0.41 0.01,0.47 0.06,0.7 z"
           id="path3379" /><polyline
           style="fill:#000000;fill-rule:nonzero;stroke-width:0"
           points="500,418 539.24,418 539.24,420.04 500,420.04 "
           id="polyline3381" /><path
           style="fill:#000000;stroke-width:0"
           inkscape:connector-curvature="0"
           d="m 514.67,410.09 0.03,0.1 0.03,0.11 0.03,0.1 0.02,0.09 0.03,0.09 0.03,0.09 0.03,0.08 0.04,0.07 0.03,0.07 0.04,0.07 0.04,0.06 0.05,0.06 0.05,0.06 0.06,0.05 0.06,0.05 0.07,0.04 0.08,0.04 0.08,0.04 0.09,0.03 0.1,0.03 0.11,0.03 0.05,0.02 0.06,0.01 0.06,0.01 0.07,0.01 0.07,0.01 0.07,0.01 0.07,0.01 0.07,0.01 0.08,0 0.08,0.01 0.09,0.01 0.08,0 0.09,0.01 0.1,0 0.09,0 0.1,0.01 0.11,0 0.1,0 0.11,0 0.11,0.01 0.12,0 0.12,0 c 0.88,0 1.28,0 1.28,0.73 0,0.31 -0.23,0.52 -0.54,0.52 -0.74,0 -1.61,-0.11 -2.35,-0.11 -0.76,0 -1.59,-0.03 -2.36,-0.03 0,0 -2.4,0.03 -2.4,0.03 -0.77,0 -1.64,0.11 -2.41,0.11 -0.22,0 -0.73,0 -0.73,-0.77 0,-0.48 0.39,-0.48 1.15,-0.48 0.03,0 0.72,0 1.31,-0.08 0.71,-0.06 0.96,-0.1 0.96,-0.49 0,-0.2 -0.08,-0.45 -0.14,-0.73 l -4.64,-18.5 c -0.28,-1.14 -0.39,-1.5 -3,-1.5 -0.94,0 -1.28,0 -1.28,-0.77 0,-0.03 0,-0.48 0.54,-0.48 1.05,0 3.67,0.14 4.71,0.14 l 2.4,-0.03 c 0.77,0 1.64,-0.11 2.41,-0.11 0.22,0 0.73,0 0.73,0.76 0,0.49 -0.42,0.49 -1.11,0.49 -0.08,0 -0.81,0 -1.5,0.08 -0.81,0.06 -0.81,0.2 -0.81,0.51 0,0.03 0,0.25 0.14,0.77 z"
           id="path3383" /><path
           style="fill:#000000;stroke-width:0"
           inkscape:connector-curvature="0"
           d="m 534.41,393.3 0.01,0.03 0.01,0.03 0,0.04 0.01,0.03 0.01,0.03 0.01,0.03 0,0.02 0.01,0.03 0.01,0.03 0,0.02 0,0.02 0.01,0.03 0,0.02 0.01,0.02 0,0.02 0,0.01 0,0.02 0.01,0.02 0,0.01 0,0.01 0,0.02 0,0.01 0,0.01 0,0.01 0,0.01 0.01,0 0,0.01 0,0.01 0,0 0,0 0,0.01 0,0 c 0,0.55 -0.46,0.87 -0.93,0.87 -1,0 -1.2,-0.87 -1.37,-1.54 l -0.52,-2.07 -0.78,-3.1 c -0.09,-0.33 -0.22,-0.86 -0.25,-1 -0.01,-0.1 -1.36,-2.44 -3.48,-2.44 -1.14,0 -2.05,0.54 -2.05,2.14 0,1.36 0.75,3.19 1.47,4.98 0.12,0.3 0.31,0.69 0.31,1.11 0,1.22 -1.17,2.21 -2.72,2.21 -2.62,0 -4.01,-3.19 -4.01,-3.86 0,-0.36 0.4,-0.36 0.53,-0.36 0.42,0 0.44,0.12 0.56,0.5 0.53,1.72 1.7,2.86 2.81,2.86 0.49,0 0.75,-0.27 0.75,-0.94 0,-0.5 -0.14,-0.84 -0.32,-1.3 -1.22,-2.97 -1.44,-3.86 -1.44,-4.86 0,-2.76 2.31,-3.34 3.98,-3.34 1.42,0 2.47,0.7 3.1,1.23 -0.36,-1.4 -0.63,-2.5 -1.8,-3.68 -0.58,-0.58 -1.75,-1.54 -3.28,-1.54 -0.46,0 -1.38,0.08 -1.96,0.61 1.13,0.27 1.26,1.24 1.26,1.49 0,0.73 -0.58,1.03 -1.1,1.03 -0.72,0 -1.58,-0.61 -1.58,-1.75 0,-1.25 1.28,-2.22 3.38,-2.22 2.83,0 6.2,1.89 7,5.08 z"
           id="path3385" /></g>    </g>
    <g
       id="g3458"
       transform="translate(182.05039,30.981868)"
       inkscape:export-filename="/home/ghostbot/Documents/BA3/PA/Rapport/figureOpticalConstraint.png"
       inkscape:export-xdpi="112"
       inkscape:export-ydpi="112">
      <g
         word-spacing="normal"
         letter-spacing="normal"
         font-size-adjust="none"
         font-stretch="normal"
         font-weight="normal"
         font-variant="normal"
         font-style="normal"
         stroke-miterlimit="10.433"
         xml:space="preserve"
         transform="matrix(1.0629921,0,0,-1.0629921,-186.02362,789.27165)"
         id="g3460"
         style="font-style:normal;font-variant:normal;font-weight:normal;font-stretch:normal;letter-spacing:normal;word-spacing:normal;text-anchor:start;fill:none;stroke:#000000;stroke-linecap:butt;stroke-linejoin:miter;stroke-miterlimit:10.43299961;stroke-opacity:1;stroke-dasharray:none;stroke-dashoffset:0"><path
           id="path3462"
           d="m 488.35,417.65 0.16,0 0.16,0 0.15,0.01 0.08,0 0.08,0.01 0.07,0 0.08,0.01 0.07,0.01 0.07,0.01 0.07,0.02 0.07,0.02 0.07,0.02 0.06,0.02 0.06,0.02 0.06,0.03 0.05,0.03 0.06,0.04 0.05,0.03 0.04,0.05 0.04,0.04 0.04,0.05 0.02,0.03 0.02,0.03 0.01,0.03 0.02,0.03 0.01,0.03 0.02,0.03 0.01,0.04 0.01,0.03 0.01,0.04 0,0.04 0.01,0.04 0.01,0.04 0,0.04 0.01,0.04 0,0.05 0,0.04 c 0,1 -0.91,1 -1.75,1 h -26.96 c -0.84,0 -1.73,0 -1.73,-1 0,-1 0.89,-1 1.73,-1 z"
           inkscape:connector-curvature="0"
           style="fill:#000000;stroke-width:0" /><path
           id="path3464"
           d="m 517.55,447.65 0.03,0.11 0.03,0.1 0.02,0.1 0.03,0.09 0.03,0.09 0.03,0.09 0.03,0.08 0.03,0.07 0.04,0.08 0.04,0.06 0.04,0.07 0.05,0.05 0.05,0.06 0.06,0.05 0.06,0.05 0.07,0.04 0.07,0.04 0.09,0.04 0.09,0.04 0.1,0.03 0.1,0.02 0.06,0.02 0.06,0.01 0.06,0.01 0.07,0.01 0.07,0.01 0.07,0.01 0.07,0.01 0.07,0.01 0.08,0 0.08,0.01 0.09,0.01 0.08,0 0.09,0.01 0.1,0 0.09,0.01 0.1,0 0.1,0 0.11,0 0.11,0.01 0.11,0 0.12,0 0.12,0 c 0.88,0 1.28,0 1.28,0.73 0,0.32 -0.23,0.52 -0.55,0.52 -0.73,0 -1.6,-0.11 -2.34,-0.11 -0.76,0 -1.59,-0.03 -2.36,-0.03 0,0 -2.4,0.03 -2.4,0.03 -0.77,0 -1.65,0.11 -2.41,0.11 -0.22,0 -0.73,0 -0.73,-0.77 0,-0.48 0.39,-0.48 1.15,-0.48 0.03,0 0.72,0 1.31,-0.08 0.71,-0.06 0.96,-0.09 0.96,-0.48 0,-0.21 -0.08,-0.46 -0.14,-0.74 l -4.64,-18.5 c -0.29,-1.14 -0.39,-1.5 -3,-1.5 -0.94,0 -1.29,0 -1.29,-0.76 0,-0.04 0,-0.49 0.55,-0.49 1.05,0 3.67,0.14 4.7,0.14 l 2.41,-0.03 c 0.77,0 1.64,-0.11 2.41,-0.11 0.22,0 0.73,0 0.73,0.77 0,0.48 -0.42,0.48 -1.11,0.48 -0.08,0 -0.81,0 -1.5,0.08 -0.81,0.06 -0.81,0.2 -0.81,0.52 0,0.03 0,0.25 0.14,0.76 z"
           inkscape:connector-curvature="0"
           style="fill:#000000;stroke-width:0" /><path
           id="path3466"
           d="m 528.63,431.17 h 2.94 c 0.51,0 0.54,0.03 0.67,0.12 0.12,0.11 0.2,0.42 0.2,0.58 0,0.42 -0.37,0.42 -0.79,0.42 h -2.75 l 0.53,2.07 c 0.14,0.65 0.43,1.78 0.43,1.92 0,0.42 -0.31,0.87 -0.92,0.87 -0.42,0 -1.01,-0.28 -1.22,-0.95 -0.12,-0.42 0.18,0.75 -1,-3.91 h -2.95 c -0.5,0 -0.87,0 -0.87,-0.7 0,-0.42 0.34,-0.42 0.79,-0.42 h 2.77 l -1.47,-5.85 c -0.13,-0.54 -0.33,-1.32 -0.33,-1.62 0,-1.42 1.33,-2.42 3.06,-2.42 3.02,0 4.86,3.37 4.86,3.87 0,0.35 -0.42,0.35 -0.51,0.35 -0.41,0 -0.46,-0.1 -0.58,-0.43 -0.83,-1.79 -2.38,-2.93 -3.66,-2.93 -0.8,0 -1.05,0.56 -1.05,1.31 0,0.41 0.02,0.47 0.07,0.7 z"
           inkscape:connector-curvature="0"
           style="fill:#000000;stroke-width:0" /><polyline
           id="polyline3468"
           points="500,418 539.96,418 539.96,420.04 500,420.04 "
           style="fill:#000000;fill-rule:nonzero;stroke-width:0" /><path
           id="path3470"
           d="m 514.67,410.09 0.03,0.1 0.03,0.11 0.03,0.1 0.02,0.09 0.03,0.09 0.03,0.09 0.03,0.08 0.04,0.07 0.03,0.07 0.04,0.07 0.04,0.06 0.05,0.06 0.05,0.06 0.06,0.05 0.06,0.05 0.07,0.04 0.08,0.04 0.08,0.04 0.09,0.03 0.1,0.03 0.11,0.03 0.05,0.02 0.06,0.01 0.06,0.01 0.07,0.01 0.07,0.01 0.07,0.01 0.07,0.01 0.07,0.01 0.08,0 0.08,0.01 0.09,0.01 0.08,0 0.09,0.01 0.1,0 0.09,0 0.1,0.01 0.11,0 0.1,0 0.11,0 0.11,0.01 0.12,0 0.12,0 c 0.88,0 1.28,0 1.28,0.73 0,0.31 -0.23,0.52 -0.54,0.52 -0.74,0 -1.61,-0.11 -2.35,-0.11 -0.76,0 -1.59,-0.03 -2.36,-0.03 0,0 -2.4,0.03 -2.4,0.03 -0.77,0 -1.64,0.11 -2.41,0.11 -0.22,0 -0.73,0 -0.73,-0.77 0,-0.48 0.39,-0.48 1.15,-0.48 0.03,0 0.72,0 1.31,-0.08 0.71,-0.06 0.96,-0.1 0.96,-0.49 0,-0.2 -0.08,-0.45 -0.14,-0.73 l -4.64,-18.5 c -0.28,-1.14 -0.39,-1.5 -3,-1.5 -0.94,0 -1.28,0 -1.28,-0.77 0,-0.03 0,-0.48 0.54,-0.48 1.05,0 3.67,0.14 4.71,0.14 l 2.4,-0.03 c 0.77,0 1.64,-0.11 2.41,-0.11 0.22,0 0.73,0 0.73,0.76 0,0.49 -0.42,0.49 -1.11,0.49 -0.08,0 -0.81,0 -1.5,0.08 -0.81,0.06 -0.81,0.2 -0.81,0.51 0,0.03 0,0.25 0.14,0.77 z"
           inkscape:connector-curvature="0"
           style="fill:#000000;stroke-width:0" /><path
           id="path3472"
           d="m 533.39,393.77 -0.05,-0.02 -0.05,-0.02 -0.05,-0.02 -0.05,-0.02 -0.05,-0.02 -0.04,-0.02 -0.04,-0.02 -0.05,-0.03 -0.04,-0.02 -0.03,-0.02 -0.04,-0.03 -0.04,-0.03 -0.03,-0.02 -0.04,-0.03 -0.03,-0.03 -0.03,-0.03 -0.06,-0.05 -0.05,-0.06 -0.05,-0.06 -0.04,-0.07 -0.04,-0.06 -0.04,-0.06 -0.03,-0.06 -0.03,-0.06 -0.02,-0.06 -0.02,-0.06 -0.02,-0.06 -0.02,-0.05 -0.01,-0.05 -0.02,-0.05 0,-0.05 -0.01,-0.05 -0.01,-0.04 0,-0.03 -0.01,-0.03 0,-0.03 0,-0.02 0,-0.01 0,-0.01 0,0 0,-0.01 0,0 0,0 c 0,-0.42 0.3,-1.02 1.11,-1.02 0.7,0 1.55,0.6 1.55,1.69 0,1.47 -1.64,2.05 -2.96,2.05 -1.62,0 -2.67,-1.05 -3.17,-1.71 -0.83,1.42 -2.42,1.71 -3.31,1.71 -3.11,0 -4.88,-2.94 -4.88,-3.86 0,-0.36 0.39,-0.36 0.52,-0.36 0.22,0 0.42,0.03 0.53,0.29 0.74,2.46 2.78,3.07 3.74,3.07 0.81,0 1.76,-0.35 1.76,-1.66 0,-0.62 -0.45,-2.34 -1.3,-5.66 -0.37,-1.42 -1.51,-2.26 -2.59,-2.26 -0.17,0 -0.89,0 -1.48,0.39 1.11,0.41 1.11,1.34 1.11,1.45 0,0.72 -0.55,1.05 -1.1,1.05 -0.62,0 -1.55,-0.5 -1.55,-1.7 0,-1.52 1.71,-2.05 2.97,-2.05 1.38,0 2.49,0.8 3.1,1.7 0.98,-1.5 2.58,-1.7 3.36,-1.7 3.14,0 4.9,2.97 4.9,3.87 0,0.35 -0.42,0.35 -0.51,0.35 -0.44,0 -0.49,-0.16 -0.57,-0.38 -0.71,-2.25 -2.64,-2.98 -3.73,-2.98 -0.75,0 -1.77,0.26 -1.77,1.65 0,0.32 0,0.49 0.21,1.33 0.42,1.75 1.09,4.52 1.29,4.96 0.32,0.65 1.14,1.64 2.41,1.64 0.08,0 0.92,0 1.5,-0.39 z"
           inkscape:connector-curvature="0"
           style="fill:#000000;stroke-width:0" /></g>    </g>
    <g
       transform="translate(-38.42558,-198.70948)"
       id="g3554"
       inkscape:export-filename="/home/ghostbot/Documents/BA3/PA/Rapport/figureOpticalConstraint.png"
       inkscape:export-xdpi="112"
       inkscape:export-ydpi="112">
      <g
         style="font-style:normal;font-variant:normal;font-weight:normal;font-stretch:normal;letter-spacing:normal;word-spacing:normal;text-anchor:start;fill:none;stroke:#000000;stroke-linecap:butt;stroke-linejoin:miter;stroke-miterlimit:10.43299961;stroke-opacity:1;stroke-dasharray:none;stroke-dashoffset:0"
         id="g3556"
         transform="matrix(1.0629921,0,0,-1.0629921,-186.02362,789.27165)"
         xml:space="preserve"
         stroke-miterlimit="10.433"
         font-style="normal"
         font-variant="normal"
         font-weight="normal"
         font-stretch="normal"
         font-size-adjust="none"
         letter-spacing="normal"
         word-spacing="normal"><path
           style="fill:#000000;stroke-width:0"
           inkscape:connector-curvature="0"
           d="m 480.35,435.84 -0.07,-0.06 -0.07,-0.07 -0.07,-0.07 -0.09,-0.07 -0.08,-0.08 -0.09,-0.08 -0.09,-0.09 -0.09,-0.08 -0.1,-0.09 -0.1,-0.1 -0.19,-0.19 -0.2,-0.19 -0.19,-0.21 -0.09,-0.1 -0.09,-0.1 -0.09,-0.1 -0.08,-0.11 -0.08,-0.1 -0.08,-0.1 -0.07,-0.1 -0.06,-0.1 -0.06,-0.1 -0.05,-0.1 -0.05,-0.1 -0.04,-0.09 -0.03,-0.09 -0.02,-0.1 -0.02,-0.08 0,-0.09 c 0,-0.5 0.5,-1 1,-1 0.45,0 0.7,0.36 0.95,0.66 0.59,0.75 1.74,2.14 3.94,3.23 0.34,0.21 0.84,0.46 0.84,1.05 0,0.5 -0.34,0.75 -0.7,1 -1.09,0.75 -1.64,1.64 -2.05,2.83 -0.09,0.45 -0.29,1.11 -0.98,1.11 -0.71,0 -1,-0.66 -1,-1.05 0,-0.25 0.39,-1.84 1.19,-2.89 h -16.79 c -0.84,0 -1.75,0 -1.75,-1 0,-1 0.91,-1 1.75,-1 z"
           id="path3558" /><path
           style="fill:#000000;stroke-width:0"
           inkscape:connector-curvature="0"
           d="m 478.83,424.73 0,0.12 -0.01,0.13 0,0.12 -0.01,0.11 0,0.12 -0.01,0.11 -0.02,0.11 -0.01,0.1 -0.03,0.21 -0.04,0.19 -0.04,0.18 -0.05,0.18 -0.05,0.16 -0.06,0.16 -0.06,0.15 -0.07,0.13 -0.07,0.13 -0.07,0.12 -0.08,0.12 -0.08,0.1 -0.08,0.1 -0.09,0.09 -0.09,0.08 -0.09,0.07 -0.09,0.07 -0.09,0.06 -0.09,0.05 -0.09,0.05 -0.09,0.04 -0.1,0.03 -0.09,0.03 -0.09,0.03 -0.09,0.01 -0.09,0.02 -0.08,0 -0.09,0 c -1.25,0 -2.44,-1.29 -2.44,-2.39 0,-0.64 0.25,-0.93 0.8,-1.48 1.05,-1 1.69,-2.3 1.69,-4.09 0,-2.1 -3.03,-13.5 -8.86,-13.5 -2.55,0 -3.69,1.75 -3.69,4.32 0,2.8 1.34,6.44 2.89,10.57 0.35,0.86 0.59,1.54 0.59,2.5 0,2.23 -1.59,4.07 -4.09,4.07 -4.67,0 -6.58,-7.21 -6.58,-7.67 0,-0.5 0.5,-0.5 0.61,-0.5 0.5,0 0.55,0.11 0.8,0.91 1.44,5.03 3.58,6.17 5.03,6.17 0.39,0 1.25,0 1.25,-1.59 0,-1.25 -0.5,-2.6 -0.86,-3.49 -2.19,-5.78 -2.83,-8.08 -2.83,-10.22 0,-5.37 4.38,-6.17 6.67,-6.17 8.38,0 11.21,16.49 11.21,19.08 z"
           id="path3560" /><path
           style="fill:#000000;stroke-width:0"
           inkscape:connector-curvature="0"
           d="m 497.85,447.03 0,0.05 0,0.05 0,0.05 0,0.05 -0.01,0.06 0,0.05 0,0.06 0,0.06 -0.01,0.05 -0.01,0.06 -0.01,0.06 -0.01,0.05 -0.01,0.06 -0.01,0.05 -0.02,0.06 -0.02,0.05 -0.02,0.05 -0.02,0.05 -0.03,0.05 -0.02,0.04 -0.04,0.05 -0.03,0.04 -0.04,0.03 -0.02,0.02 -0.02,0.02 -0.02,0.01 -0.03,0.02 -0.02,0.01 -0.03,0.02 -0.02,0.01 -0.03,0.01 -0.03,0.01 -0.03,0.01 -0.03,0.01 -0.03,0.01 -0.03,0 -0.03,0.01 -0.04,0 -0.03,0 -0.04,0.01 -0.04,0 c -0.88,0 -0.88,-0.82 -0.88,-1.36 V 425.9 h -10.62 c -0.53,0 -1.39,0 -1.39,-0.83 0,-0.87 0.8,-0.87 1.39,-0.87 h 22.97 c 0.55,0 1.39,0 1.39,0.84 0,0.86 -0.81,0.86 -1.39,0.86 h -10.64 z"
           id="path3562" /></g>    </g>
    <g
       id="g3654"
       transform="translate(249.46459,-170.22483)"
       inkscape:export-filename="/home/ghostbot/Documents/BA3/PA/Rapport/figureOpticalConstraint.png"
       inkscape:export-xdpi="112"
       inkscape:export-ydpi="112">
      <g
         word-spacing="normal"
         letter-spacing="normal"
         font-size-adjust="none"
         font-stretch="normal"
         font-weight="normal"
         font-variant="normal"
         font-style="normal"
         stroke-miterlimit="10.433"
         xml:space="preserve"
         transform="matrix(1.0629921,0,0,-1.0629921,-186.02362,789.27165)"
         id="g3656"
         style="font-style:normal;font-variant:normal;font-weight:normal;font-stretch:normal;letter-spacing:normal;word-spacing:normal;text-anchor:start;fill:none;stroke:#000000;stroke-linecap:butt;stroke-linejoin:miter;stroke-miterlimit:10.43299961;stroke-opacity:1;stroke-dasharray:none;stroke-dashoffset:0"><path
           id="path3658"
           d="m 463.44,441.78 0,0.16 0,0.17 -0.01,0.16 0,0.08 0,0.08 -0.01,0.08 -0.01,0.08 -0.01,0.07 -0.01,0.07 -0.02,0.07 -0.01,0.07 -0.02,0.07 -0.02,0.06 -0.03,0.06 -0.03,0.06 -0.03,0.06 -0.03,0.05 -0.04,0.05 -0.04,0.05 -0.05,0.04 -0.05,0.04 -0.03,0.01 -0.03,0.02 -0.03,0.02 -0.03,0.01 -0.03,0.01 -0.03,0.02 -0.03,0.01 -0.04,0.01 -0.04,0.01 -0.03,0.01 -0.04,0 -0.04,0.01 -0.04,0 -0.05,0.01 -0.04,0 -0.05,0 c -1,0 -1,-0.89 -1,-1.78 v -46.24 c 0,-0.9 0,-1.79 1,-1.79 1,0 1,0.89 1,1.79 z"
           inkscape:connector-curvature="0"
           style="fill:#000000;stroke-width:0" /><path
           id="path3660"
           d="m 494.15,435.84 -0.07,-0.06 -0.07,-0.07 -0.08,-0.07 -0.08,-0.07 -0.08,-0.08 -0.09,-0.08 -0.09,-0.09 -0.1,-0.08 -0.09,-0.09 -0.1,-0.1 -0.2,-0.19 -0.19,-0.19 -0.19,-0.21 -0.09,-0.1 -0.09,-0.1 -0.09,-0.1 -0.08,-0.11 -0.08,-0.1 -0.08,-0.1 -0.07,-0.1 -0.07,-0.1 -0.05,-0.1 -0.06,-0.1 -0.04,-0.1 -0.04,-0.09 -0.03,-0.09 -0.03,-0.1 -0.01,-0.08 -0.01,-0.09 c 0,-0.5 0.5,-1 1,-1 0.46,0 0.71,0.36 0.96,0.66 0.59,0.75 1.73,2.14 3.94,3.23 0.34,0.21 0.84,0.46 0.84,1.05 0,0.5 -0.34,0.75 -0.7,1 -1.1,0.75 -1.64,1.64 -2.05,2.83 -0.09,0.45 -0.3,1.11 -0.99,1.11 -0.7,0 -1,-0.66 -1,-1.05 0,-0.25 0.4,-1.84 1.19,-2.89 h -16.78 c -0.84,0 -1.75,0 -1.75,-1 0,-1 0.91,-1 1.75,-1 z"
           inkscape:connector-curvature="0"
           style="fill:#000000;stroke-width:0" /><path
           id="path3662"
           d="m 492.62,424.73 0,0.12 0,0.13 0,0.12 -0.01,0.11 -0.01,0.12 -0.01,0.11 -0.01,0.11 -0.01,0.1 -0.03,0.21 -0.04,0.19 -0.04,0.18 -0.05,0.18 -0.05,0.16 -0.06,0.16 -0.07,0.15 -0.06,0.13 -0.07,0.13 -0.08,0.12 -0.07,0.12 -0.08,0.1 -0.09,0.1 -0.08,0.09 -0.09,0.08 -0.09,0.07 -0.09,0.07 -0.09,0.06 -0.09,0.05 -0.09,0.05 -0.1,0.04 -0.09,0.03 -0.09,0.03 -0.09,0.03 -0.09,0.01 -0.09,0.02 -0.09,0 -0.08,0 c -1.25,0 -2.44,-1.29 -2.44,-2.39 0,-0.64 0.25,-0.93 0.8,-1.48 1.04,-1 1.68,-2.3 1.68,-4.09 0,-2.1 -3.03,-13.5 -8.86,-13.5 -2.54,0 -3.68,1.75 -3.68,4.32 0,2.8 1.34,6.44 2.89,10.57 0.34,0.86 0.59,1.54 0.59,2.5 0,2.23 -1.59,4.07 -4.09,4.07 -4.67,0 -6.58,-7.21 -6.58,-7.67 0,-0.5 0.5,-0.5 0.61,-0.5 0.5,0 0.55,0.11 0.8,0.91 1.43,5.03 3.57,6.17 5.03,6.17 0.39,0 1.25,0 1.25,-1.59 0,-1.25 -0.5,-2.6 -0.86,-3.49 -2.19,-5.78 -2.83,-8.08 -2.83,-10.22 0,-5.37 4.37,-6.17 6.67,-6.17 8.38,0 11.2,16.49 11.2,19.08 z"
           inkscape:connector-curvature="0"
           style="fill:#000000;stroke-width:0" /><path
           id="path3664"
           d="m 511.64,447.03 0,0.05 0,0.05 0,0.05 0,0.05 0,0.06 0,0.05 0,0.06 -0.01,0.06 0,0.05 -0.01,0.06 -0.01,0.06 -0.01,0.05 -0.01,0.06 -0.01,0.05 -0.02,0.06 -0.02,0.05 -0.02,0.05 -0.02,0.05 -0.03,0.05 -0.03,0.04 -0.03,0.05 -0.03,0.04 -0.04,0.03 -0.02,0.02 -0.02,0.02 -0.03,0.01 -0.02,0.02 -0.02,0.01 -0.03,0.02 -0.03,0.01 -0.02,0.01 -0.03,0.01 -0.03,0.01 -0.03,0.01 -0.03,0.01 -0.03,0 -0.04,0.01 -0.03,0 -0.04,0 -0.04,0.01 -0.03,0 c -0.88,0 -0.88,-0.82 -0.88,-1.36 V 425.9 h -10.62 c -0.53,0 -1.39,0 -1.39,-0.83 0,-0.87 0.79,-0.87 1.39,-0.87 h 22.96 c 0.55,0 1.4,0 1.4,0.84 0,0.86 -0.82,0.86 -1.4,0.86 h -10.64 z"
           inkscape:connector-curvature="0"
           style="fill:#000000;stroke-width:0" /><path
           id="path3666"
           d="m 536.88,441.78 0,0.16 0,0.17 0,0.16 -0.01,0.08 0,0.08 -0.01,0.08 -0.01,0.08 -0.01,0.07 -0.01,0.07 -0.01,0.07 -0.02,0.07 -0.02,0.07 -0.02,0.06 -0.03,0.06 -0.02,0.06 -0.04,0.06 -0.03,0.05 -0.04,0.05 -0.04,0.05 -0.05,0.04 -0.05,0.04 -0.03,0.01 -0.02,0.02 -0.03,0.02 -0.03,0.01 -0.03,0.01 -0.04,0.02 -0.03,0.01 -0.04,0.01 -0.03,0.01 -0.04,0.01 -0.04,0 -0.04,0.01 -0.04,0 -0.05,0.01 -0.04,0 -0.05,0 c -1,0 -1,-0.89 -1,-1.78 v -46.24 c 0,-0.9 0,-1.79 1,-1.79 1,0 1,0.89 1,1.79 z"
           inkscape:connector-curvature="0"
           style="fill:#000000;stroke-width:0" /><path
           id="path3668"
           d="m 590.91,422.5 0.14,0 0.14,0 0.15,0 0.07,0.01 0.07,0 0.08,0.01 0.07,0.01 0.07,0.01 0.07,0.01 0.07,0.01 0.06,0.02 0.07,0.02 0.06,0.02 0.06,0.02 0.06,0.03 0.05,0.03 0.06,0.04 0.05,0.03 0.04,0.05 0.05,0.04 0.04,0.05 0.02,0.03 0.01,0.03 0.02,0.02 0.02,0.03 0.01,0.03 0.01,0.04 0.01,0.03 0.02,0.04 0.01,0.03 0,0.04 0.01,0.04 0.01,0.04 0,0.04 0.01,0.04 0,0.04 0,0.05 c 0,1 -0.95,1 -1.64,1 h -29.85 c -0.7,0 -1.64,0 -1.64,-1 0,-0.98 0.94,-0.98 1.69,-0.98 z"
           inkscape:connector-curvature="0"
           style="fill:#000000;stroke-width:0" /><path
           id="path3670"
           d="m 590.96,412.82 0.06,0 0.07,0 0.14,0.01 0.13,0 0.07,0 0.07,0.01 0.07,0.01 0.07,0 0.07,0.01 0.07,0.02 0.07,0.01 0.06,0.02 0.06,0.02 0.07,0.02 0.06,0.02 0.05,0.03 0.06,0.03 0.05,0.04 0.05,0.04 0.05,0.04 0.04,0.05 0.02,0.02 0.02,0.03 0.02,0.02 0.01,0.03 0.02,0.03 0.02,0.03 0.01,0.03 0.01,0.03 0.01,0.04 0.02,0.03 0.01,0.04 0,0.04 0.01,0.04 0.01,0.04 0,0.04 0.01,0.04 0,0.05 0,0.04 c 0,1 -0.95,1 -1.69,1 h -29.75 c -0.75,0 -1.69,0 -1.69,-1 0,-1 0.94,-1 1.64,-1 z"
           inkscape:connector-curvature="0"
           style="fill:#000000;stroke-width:0" /><path
           id="path3672"
           d="m 642.06,417.65 0.16,0 0.16,0 0.16,0.01 0.07,0 0.08,0.01 0.08,0 0.07,0.01 0.08,0.01 0.07,0.01 0.07,0.02 0.06,0.02 0.07,0.02 0.06,0.02 0.06,0.02 0.06,0.03 0.06,0.03 0.05,0.04 0.05,0.03 0.05,0.05 0.04,0.04 0.04,0.05 0.02,0.03 0.01,0.03 0.02,0.03 0.01,0.03 0.02,0.03 0.01,0.03 0.01,0.04 0.01,0.03 0.01,0.04 0.01,0.04 0.01,0.04 0,0.04 0.01,0.04 0,0.04 0,0.05 0,0.04 c 0,1 -0.9,1 -1.75,1 h -26.95 c -0.84,0 -1.73,0 -1.73,-1 0,-1 0.89,-1 1.73,-1 z"
           inkscape:connector-curvature="0"
           style="fill:#000000;stroke-width:0" /><path
           id="path3674"
           d="m 727.07,447.65 0.03,0.11 0.03,0.1 0.02,0.1 0.03,0.09 0.03,0.09 0.03,0.09 0.03,0.08 0.03,0.07 0.04,0.08 0.04,0.06 0.04,0.07 0.05,0.05 0.05,0.06 0.06,0.05 0.06,0.05 0.07,0.04 0.07,0.04 0.09,0.04 0.09,0.04 0.1,0.03 0.1,0.02 0.06,0.02 0.06,0.01 0.06,0.01 0.07,0.01 0.06,0.01 0.07,0.01 0.08,0.01 0.07,0.01 0.08,0 0.08,0.01 0.08,0.01 0.09,0 0.09,0.01 0.09,0 0.1,0.01 0.1,0 0.1,0 0.11,0 0.11,0.01 0.11,0 0.12,0 0.12,0 c 0.88,0 1.28,0 1.28,0.73 0,0.32 -0.23,0.52 -0.55,0.52 -0.73,0 -1.6,-0.11 -2.34,-0.11 -0.76,0 -1.59,-0.03 -2.36,-0.03 0,0 -2.4,0.03 -2.4,0.03 -0.77,0 -1.65,0.11 -2.41,0.11 -0.22,0 -0.74,0 -0.74,-0.77 0,-0.48 0.4,-0.48 1.16,-0.48 0.03,0 0.72,0 1.31,-0.08 0.71,-0.06 0.96,-0.09 0.96,-0.48 0,-0.21 -0.08,-0.46 -0.14,-0.74 l -4.64,-18.5 c -0.29,-1.14 -0.4,-1.5 -3,-1.5 -0.94,0 -1.29,0 -1.29,-0.76 0,-0.04 0,-0.49 0.55,-0.49 1.05,0 3.67,0.14 4.7,0.14 l 2.41,-0.03 c 0.77,0 1.64,-0.11 2.41,-0.11 0.22,0 0.73,0 0.73,0.77 0,0.48 -0.42,0.48 -1.11,0.48 -0.08,0 -0.81,0 -1.5,0.08 -0.81,0.06 -0.81,0.2 -0.81,0.52 0,0.03 0,0.25 0.14,0.76 z"
           inkscape:connector-curvature="0"
           style="fill:#000000;stroke-width:0" /><path
           id="path3676"
           d="m 738.15,431.17 h 2.94 c 0.51,0 0.54,0.03 0.67,0.12 0.12,0.11 0.2,0.42 0.2,0.58 0,0.42 -0.37,0.42 -0.8,0.42 h -2.75 l 0.54,2.07 c 0.14,0.65 0.43,1.78 0.43,1.92 0,0.42 -0.31,0.87 -0.92,0.87 -0.42,0 -1.01,-0.28 -1.22,-0.95 -0.12,-0.42 0.17,0.75 -1,-3.91 h -2.95 c -0.5,0 -0.88,0 -0.88,-0.7 0,-0.42 0.35,-0.42 0.8,-0.42 h 2.77 l -1.47,-5.85 c -0.13,-0.54 -0.33,-1.32 -0.33,-1.62 0,-1.42 1.33,-2.42 3.06,-2.42 3.02,0 4.86,3.37 4.86,3.87 0,0.35 -0.42,0.35 -0.51,0.35 -0.41,0 -0.46,-0.1 -0.58,-0.43 -0.83,-1.79 -2.38,-2.93 -3.66,-2.93 -0.8,0 -1.05,0.56 -1.05,1.31 0,0.41 0.02,0.47 0.07,0.7 z"
           inkscape:connector-curvature="0"
           style="fill:#000000;stroke-width:0" /><polyline
           id="polyline3678"
           points="654,418 805.8,418 805.8,420.04 654,420.04 "
           style="fill:#000000;fill-rule:nonzero;stroke-width:0" /><path
           id="path3680"
           d="m 673.25,369.01 -8.76,19.37 c -0.34,0.8 -0.59,0.8 -0.75,0.8 -0.05,0 -0.3,0 -0.84,-0.39 l -4.74,-3.59 c -0.64,-0.5 -0.64,-0.65 -0.64,-0.8 0,-0.25 0.14,-0.55 0.5,-0.55 0.3,0 1.14,0.7 1.69,1.1 0.29,0.25 1.04,0.79 1.59,1.2 l 9.81,-21.58 c 0.36,-0.8 0.61,-0.8 1.05,-0.8 0.75,0 0.91,0.3 1.25,1 l 22.62,46.83 c 0.35,0.7 0.35,0.89 0.35,1 0,0.5 -0.41,1 -1,1 -0.39,0 -0.75,-0.25 -1.14,-1.05 z"
           inkscape:connector-curvature="0"
           style="fill:#000000;stroke-width:0" /><polyline
           id="polyline3682"
           points="695,412 805.28,412 805.28,414.04 695,414.04 "
           style="fill:#000000;fill-rule:nonzero;stroke-width:0" /><path
           id="path3684"
           d="m 709.79,402.17 0.03,0.11 0.03,0.1 0.02,0.1 0.03,0.09 0.03,0.09 0.03,0.09 0.03,0.08 0.03,0.07 0.04,0.07 0.04,0.07 0.04,0.07 0.05,0.05 0.05,0.06 0.06,0.05 0.06,0.05 0.07,0.04 0.07,0.04 0.09,0.04 0.09,0.04 0.1,0.03 0.1,0.02 0.06,0.02 0.06,0.01 0.06,0.01 0.07,0.01 0.06,0.01 0.07,0.01 0.08,0.01 0.07,0.01 0.08,0 0.08,0.01 0.08,0.01 0.09,0 0.09,0.01 0.09,0 0.1,0.01 0.1,0 0.1,0 0.11,0 0.11,0.01 0.11,0 0.12,0 0.12,0 c 0.87,0 1.28,0 1.28,0.73 0,0.31 -0.23,0.52 -0.55,0.52 -0.73,0 -1.61,-0.11 -2.34,-0.11 -0.77,0 -1.59,-0.03 -2.36,-0.03 0,0 -2.41,0.03 -2.41,0.03 -0.76,0 -1.64,0.11 -2.4,0.11 -0.22,0 -0.74,0 -0.74,-0.77 0,-0.48 0.39,-0.48 1.16,-0.48 0.03,0 0.72,0 1.31,-0.08 0.71,-0.06 0.96,-0.09 0.96,-0.48 0,-0.21 -0.08,-0.46 -0.15,-0.74 l -4.64,-18.5 c -0.28,-1.14 -0.39,-1.5 -3,-1.5 -0.93,0 -1.28,0 -1.28,-0.76 0,-0.04 0,-0.49 0.55,-0.49 1.05,0 3.67,0.14 4.7,0.14 l 2.41,-0.03 c 0.76,0 1.64,-0.11 2.41,-0.11 0.21,0 0.73,0 0.73,0.77 0,0.48 -0.42,0.48 -1.11,0.48 -0.08,0 -0.81,0 -1.5,0.08 -0.81,0.06 -0.81,0.2 -0.81,0.51 0,0.04 0,0.25 0.14,0.77 z"
           inkscape:connector-curvature="0"
           style="fill:#000000;stroke-width:0" /><path
           id="path3686"
           d="m 730.47,395.89 h -1.04 c -0.08,-0.48 -0.33,-2.01 -0.72,-2.27 -0.21,-0.15 -2.3,-0.15 -2.68,-0.15 h -4.87 c 1.64,1.22 3.49,2.61 4.99,3.61 2.23,1.54 4.32,3 4.32,5.64 0,3.19 -3.01,4.95 -6.57,4.95 -3.37,0 -5.83,-1.95 -5.83,-4.39 0,-1.3 1.09,-1.51 1.45,-1.51 0.67,0 1.47,0.45 1.47,1.46 0,0.89 -0.66,1.39 -1.42,1.47 0.68,1.13 2.14,1.88 3.81,1.88 2.4,0 4.42,-1.46 4.42,-3.89 0,-2.1 -1.44,-3.69 -3.36,-5.31 l -6.08,-5.16 C 718.11,392 718.1,392 718.07,391.83 v -0.75 h 11.58 z"
           inkscape:connector-curvature="0"
           style="fill:#000000;stroke-width:0" /><path
           id="path3688"
           d="m 728.51,380.93 -0.05,-0.02 -0.06,-0.02 -0.05,-0.02 -0.04,-0.02 -0.05,-0.02 -0.04,-0.02 -0.05,-0.02 -0.04,-0.03 -0.04,-0.02 -0.04,-0.02 -0.04,-0.03 -0.03,-0.03 -0.04,-0.02 -0.03,-0.03 -0.03,-0.03 -0.03,-0.03 -0.06,-0.05 -0.05,-0.06 -0.05,-0.06 -0.04,-0.07 -0.04,-0.06 -0.04,-0.06 -0.03,-0.06 -0.03,-0.06 -0.03,-0.06 -0.02,-0.06 -0.02,-0.06 -0.01,-0.05 -0.02,-0.05 -0.01,-0.05 -0.01,-0.05 -0.01,-0.05 0,-0.04 -0.01,-0.03 0,-0.03 0,-0.03 0,-0.02 0,-0.01 0,-0.01 0,0 0,-0.01 0,0 0,0 c 0,-0.42 0.29,-1.02 1.11,-1.02 0.7,0 1.54,0.6 1.54,1.69 0,1.47 -1.64,2.05 -2.95,2.05 -1.62,0 -2.67,-1.05 -3.17,-1.71 -0.83,1.42 -2.42,1.71 -3.31,1.71 -3.11,0 -4.88,-2.94 -4.88,-3.86 0,-0.36 0.39,-0.36 0.52,-0.36 0.22,0 0.42,0.03 0.53,0.29 0.73,2.46 2.78,3.07 3.73,3.07 0.81,0 1.77,-0.35 1.77,-1.66 0,-0.62 -0.46,-2.34 -1.3,-5.66 -0.37,-1.42 -1.51,-2.26 -2.59,-2.26 -0.17,0 -0.89,0 -1.49,0.39 1.11,0.41 1.11,1.34 1.11,1.45 0,0.72 -0.54,1.05 -1.09,1.05 -0.63,0 -1.55,-0.5 -1.55,-1.7 0,-1.52 1.7,-2.05 2.97,-2.05 1.38,0 2.48,0.8 3.09,1.7 0.99,-1.5 2.58,-1.7 3.36,-1.7 3.14,0 4.91,2.97 4.91,3.87 0,0.35 -0.42,0.35 -0.52,0.35 -0.43,0 -0.48,-0.16 -0.56,-0.38 -0.72,-2.25 -2.64,-2.98 -3.73,-2.98 -0.75,0 -1.77,0.26 -1.77,1.65 0,0.32 0,0.49 0.2,1.33 0.43,1.75 1.1,4.52 1.3,4.96 0.31,0.65 1.14,1.64 2.41,1.64 0.08,0 0.92,0 1.5,-0.39 z"
           inkscape:connector-curvature="0"
           style="fill:#000000;stroke-width:0" /><path
           id="path3690"
           d="m 751.5,389 h 10.66 c 0.45,0 1.28,0 1.28,0.84 0,0.86 -0.8,0.86 -1.28,0.86 H 751.5 v 10.7 c 0,0.46 0,1.28 -0.84,1.28 -0.88,0 -0.88,-0.79 -0.88,-1.28 v -10.7 h -10.69 c -0.45,0 -1.29,0 -1.29,-0.83 0,-0.87 0.79,-0.87 1.29,-0.87 h 10.69 v -10.71 c 0,-0.45 0,-1.28 0.84,-1.28 0.88,0 0.88,0.8 0.88,1.28 z"
           inkscape:connector-curvature="0"
           style="fill:#000000;stroke-width:0" /><path
           id="path3692"
           d="m 780.35,402.17 0.03,0.11 0.02,0.1 0.03,0.1 0.03,0.09 0.03,0.09 0.03,0.09 0.03,0.08 0.03,0.07 0.04,0.07 0.04,0.07 0.04,0.07 0.05,0.05 0.05,0.06 0.05,0.05 0.07,0.05 0.07,0.04 0.07,0.04 0.08,0.04 0.1,0.04 0.09,0.03 0.11,0.02 0.06,0.02 0.06,0.01 0.06,0.01 0.07,0.01 0.06,0.01 0.07,0.01 0.07,0.01 0.08,0.01 0.08,0 0.08,0.01 0.08,0.01 0.09,0 0.09,0.01 0.09,0 0.1,0.01 0.1,0 0.1,0 0.11,0 0.11,0.01 0.11,0 0.12,0 0.12,0 c 0.87,0 1.28,0 1.28,0.73 0,0.31 -0.23,0.52 -0.55,0.52 -0.73,0 -1.61,-0.11 -2.34,-0.11 -0.77,0 -1.59,-0.03 -2.36,-0.03 0,0 -2.41,0.03 -2.41,0.03 -0.76,0 -1.64,0.11 -2.4,0.11 -0.22,0 -0.74,0 -0.74,-0.77 0,-0.48 0.39,-0.48 1.16,-0.48 0.03,0 0.72,0 1.31,-0.08 0.7,-0.06 0.95,-0.09 0.95,-0.48 0,-0.21 -0.07,-0.46 -0.14,-0.74 l -4.64,-18.5 c -0.28,-1.14 -0.39,-1.5 -3,-1.5 -0.94,0 -1.28,0 -1.28,-0.76 0,-0.04 0,-0.49 0.55,-0.49 1.04,0 3.67,0.14 4.7,0.14 l 2.41,-0.03 c 0.76,0 1.64,-0.11 2.4,-0.11 0.22,0 0.74,0 0.74,0.77 0,0.48 -0.42,0.48 -1.11,0.48 -0.08,0 -0.81,0 -1.5,0.08 -0.81,0.06 -0.81,0.2 -0.81,0.51 0,0.04 0,0.25 0.14,0.77 z"
           inkscape:connector-curvature="0"
           style="fill:#000000;stroke-width:0" /><path
           id="path3694"
           d="m 801.03,395.89 h -1.05 c -0.07,-0.48 -0.32,-2.01 -0.71,-2.27 -0.21,-0.15 -2.3,-0.15 -2.68,-0.15 h -4.87 c 1.64,1.22 3.48,2.61 4.98,3.61 2.24,1.54 4.33,3 4.33,5.64 0,3.19 -3.01,4.95 -6.58,4.95 -3.36,0 -5.83,-1.95 -5.83,-4.39 0,-1.3 1.1,-1.51 1.46,-1.51 0.67,0 1.47,0.45 1.47,1.46 0,0.89 -0.66,1.39 -1.43,1.47 0.69,1.13 2.15,1.88 3.82,1.88 2.4,0 4.42,-1.46 4.42,-3.89 0,-2.1 -1.44,-3.69 -3.36,-5.31 l -6.08,-5.16 c -0.25,-0.22 -0.26,-0.22 -0.3,-0.39 v -0.75 h 11.58 z"
           inkscape:connector-curvature="0"
           style="fill:#000000;stroke-width:0" /><path
           id="path3696"
           d="m 800.09,380.46 0.01,0.03 0.01,0.03 0,0.04 0.01,0.03 0.01,0.03 0.01,0.03 0,0.02 0.01,0.03 0,0.03 0.01,0.02 0,0.02 0.01,0.03 0,0.02 0.01,0.02 0,0.02 0,0.01 0,0.02 0.01,0.02 0,0.01 0,0.01 0,0.02 0,0.01 0,0.01 0,0.01 0,0.01 0,0 0,0.01 0,0.01 0,0 0,0.01 0.01,0 0,0 c 0,0.55 -0.46,0.87 -0.93,0.87 -1,0 -1.2,-0.87 -1.37,-1.54 l -0.52,-2.06 -0.78,-3.11 c -0.09,-0.33 -0.22,-0.86 -0.25,-1 -0.01,-0.1 -1.36,-2.44 -3.48,-2.44 -1.14,0 -2.05,0.55 -2.05,2.14 0,1.36 0.75,3.19 1.47,4.98 0.12,0.3 0.31,0.69 0.31,1.11 0,1.22 -1.17,2.21 -2.72,2.21 -2.62,0 -4.01,-3.19 -4.01,-3.86 0,-0.36 0.4,-0.36 0.53,-0.36 0.42,0 0.44,0.12 0.56,0.5 0.53,1.72 1.7,2.86 2.81,2.86 0.49,0 0.75,-0.27 0.75,-0.94 0,-0.5 -0.14,-0.84 -0.32,-1.3 -1.22,-2.97 -1.44,-3.86 -1.44,-4.86 0,-2.76 2.31,-3.34 3.98,-3.34 1.42,0 2.47,0.7 3.1,1.23 -0.36,-1.4 -0.63,-2.5 -1.8,-3.68 -0.58,-0.58 -1.75,-1.54 -3.28,-1.54 -0.46,0 -1.38,0.08 -1.96,0.61 1.13,0.27 1.25,1.24 1.25,1.49 0,0.73 -0.57,1.03 -1.09,1.03 -0.72,0 -1.58,-0.61 -1.58,-1.75 0,-1.25 1.28,-2.22 3.38,-2.22 2.83,0 6.2,1.89 7,5.08 z"
           inkscape:connector-curvature="0"
           style="fill:#000000;stroke-width:0" /></g>    </g>
  </g>
</svg>
